<?xml version="1.0" standalone="no"?>
<!DOCTYPE svg PUBLIC "-//W3C//DTD SVG 20010904//EN"
 "http://www.w3.org/TR/2001/REC-SVG-20010904/DTD/svg10.dtd">
<svg version="1.0" xmlns="http://www.w3.org/2000/svg"
 width="1000.000000pt" height="301.000000pt" viewBox="0 0 1000.000000 301.000000"
 preserveAspectRatio="xMidYMid meet">
<metadata>
Created by potrace 1.16, written by Peter Selinger 2001-2019
</metadata>
<g transform="translate(0.000000,301.000000) scale(0.100000,-0.100000)"
fill="#000000" stroke="none">
<path d="M1630 2254 c-259 -51 -418 -131 -581 -293 -136 -136 -221 -287 -270
-476 -33 -129 -33 -323 0 -450 129 -491 582 -815 1068 -764 484 51 872 462
900 954 4 84 1 120 -21 225 -80 385 -367 683 -749 781 -80 20 -290 34 -347 23z
m326 -204 c322 -82 561 -356 595 -684 45 -423 -194 -782 -591 -887 -112 -30
-289 -32 -405 -5 -244 56 -458 236 -554 465 -51 120 -55 148 -55 326 0 157 2
176 27 250 32 95 96 212 158 284 92 110 257 211 410 250 106 28 307 28 415 1z"/>
<path d="M1728 1889 c-22 -12 -23 -42 -2 -60 31 -26 70 25 44 56 -14 17 -19
18 -42 4z"/>
<path d="M1341 1719 c-40 -24 -65 -63 -57 -91 3 -13 18 -36 33 -53 187 -205
370 -398 384 -406 27 -14 359 -11 389 4 35 18 56 78 40 116 -21 51 -59 61
-227 61 l-148 1 -69 77 c-161 181 -277 300 -295 305 -11 2 -33 -4 -50 -14z"/>
<path d="M2142 1717 c-22 -23 -22 -24 -4 -40 25 -23 39 -21 53 4 9 18 8 25 -8
40 -19 19 -19 19 -41 -4z"/>
<path d="M1126 1291 c-31 -35 11 -76 45 -45 13 12 16 21 9 34 -14 26 -36 31
-54 11z"/>
<path d="M2327 1292 c-22 -25 -21 -39 4 -52 37 -20 67 28 37 58 -16 16 -22 15
-41 -6z"/>
<path d="M2155 870 c-18 -20 -18 -21 3 -43 l22 -21 22 21 c21 22 21 23 3 43
-10 11 -21 20 -25 20 -4 0 -15 -9 -25 -20z"/>
<path d="M1310 851 c-12 -24 6 -63 29 -59 24 5 37 36 25 56 -16 25 -41 26 -54
3z"/>
<path d="M1728 699 c-35 -19 -9 -79 27 -65 25 9 29 36 9 56 -14 14 -23 16 -36
9z"/>
</g>
</svg>
