<?xml version="1.0" standalone="no"?>
<!DOCTYPE svg PUBLIC "-//W3C//DTD SVG 20010904//EN"
 "http://www.w3.org/TR/2001/REC-SVG-20010904/DTD/svg10.dtd">
<svg version="1.0" xmlns="http://www.w3.org/2000/svg"
 width="1000.000000pt" height="301.000000pt" viewBox="0 0 1000.000000 301.000000"
 preserveAspectRatio="xMidYMid meet">
<metadata>
Created by potrace 1.16, written by Peter Selinger 2001-2019
</metadata>
<g transform="translate(0.000000,301.000000) scale(0.100000,-0.100000)"
fill="#000000" stroke="none">
<path d="M1630 2254 c-259 -51 -418 -131 -581 -293 -136 -136 -221 -287 -270
-476 -33 -129 -33 -323 0 -450 90 -341 330 -602 657 -716 612 -212 1274 245
1311 906 4 84 1 120 -21 225 -80 385 -367 683 -749 781 -80 20 -290 34 -347
23z m326 -204 c322 -82 561 -356 595 -684 45 -423 -194 -782 -591 -887 -112
-30 -289 -32 -405 -5 -244 56 -458 236 -554 465 -51 120 -55 148 -55 326 0
157 2 176 27 250 32 95 96 212 158 284 92 110 257 211 410 250 106 28 307 28
415 1z"/>
<path d="M1728 1889 c-22 -12 -23 -42 -2 -60 31 -26 70 25 44 56 -14 17 -19
18 -42 4z"/>
<path d="M1341 1719 c-40 -24 -65 -63 -57 -91 3 -13 18 -36 33 -53 187 -205
370 -398 384 -406 27 -14 359 -11 389 4 35 18 56 78 40 116 -21 51 -59 61
-227 61 l-148 1 -69 77 c-161 181 -277 300 -295 305 -11 2 -33 -4 -50 -14z"/>
<path d="M2142 1717 c-22 -23 -22 -24 -4 -40 25 -23 39 -21 53 4 9 18 8 25 -8
40 -19 19 -19 19 -41 -4z"/>
<path d="M1126 1291 c-31 -35 11 -76 45 -45 13 12 16 21 9 34 -14 26 -36 31
-54 11z"/>
<path d="M2327 1292 c-22 -25 -21 -39 4 -52 37 -20 67 28 37 58 -16 16 -22 15
-41 -6z"/>
<path d="M2155 870 c-18 -20 -18 -21 3 -43 l22 -21 22 21 c21 22 21 23 3 43
-10 11 -21 20 -25 20 -4 0 -15 -9 -25 -20z"/>
<path d="M1310 851 c-12 -24 6 -63 29 -59 24 5 37 36 25 56 -16 25 -41 26 -54
3z"/>
<path d="M1728 699 c-35 -19 -9 -79 27 -65 25 9 29 36 9 56 -14 14 -23 16 -36
9z"/>
<path d="M5725 1838 c-3 -7 -4 -267 -3 -578 l3 -565 98 -3 97 -3 0 46 c0 37 3
45 18 45 11 0 27 -9 36 -19 34 -38 127 -74 203 -79 217 -14 387 123 429 347
13 66 13 87 0 159 -33 188 -155 313 -335 344 -112 19 -203 -3 -284 -69 -16
-13 -37 -23 -48 -23 -18 0 -19 9 -19 205 l0 205 -95 0 c-67 0 -97 -4 -100 -12z
m547 -482 c94 -34 148 -124 148 -247 0 -164 -93 -259 -254 -259 -113 0 -178
33 -223 115 -24 44 -28 61 -28 140 0 76 4 98 25 139 28 57 83 105 132 116 52
13 160 10 200 -4z"/>
<path d="M7960 1270 l0 -580 100 0 100 0 0 580 0 580 -100 0 -100 0 0 -580z"/>
<path d="M8430 1270 l0 -580 100 0 100 0 0 580 0 580 -100 0 -100 0 0 -580z"/>
<path d="M3370 1656 l0 -115 -52 -3 -53 -3 0 -85 0 -85 53 -3 52 -3 0 -267 c0
-294 6 -324 65 -370 46 -37 184 -62 259 -48 l36 7 0 79 0 80 -51 0 c-43 0 -55
5 -80 29 l-29 29 0 231 0 231 85 0 85 0 0 90 0 90 -85 0 -85 0 0 115 0 115
-100 0 -100 0 0 -114z"/>
<path d="M4366 1524 c-67 -16 -108 -39 -150 -83 -17 -17 -38 -31 -48 -31 -15
0 -18 9 -18 55 l0 55 -100 0 -100 0 0 -415 0 -415 99 0 100 0 3 238 c3 220 5
240 25 277 42 79 117 126 221 140 l52 7 0 94 c0 69 -3 94 -12 93 -7 0 -40 -7
-72 -15z"/>
<path d="M4874 1526 c-113 -27 -211 -110 -266 -223 -32 -66 -33 -72 -33 -194
0 -125 0 -125 38 -201 47 -95 121 -166 211 -200 49 -18 80 -23 156 -23 83 1
102 4 152 29 31 15 64 36 74 47 9 10 25 19 36 19 15 0 18 -8 18 -45 l0 -45
100 0 100 0 0 415 0 415 -100 0 -100 0 0 -40 c0 -33 -3 -40 -20 -40 -10 0 -35
14 -55 31 -68 60 -197 83 -311 55z m230 -165 c90 -21 156 -110 164 -222 13
-179 -66 -278 -230 -287 -169 -10 -265 72 -276 234 -8 132 46 234 144 269 45
16 141 19 198 6z"/>
<path d="M7107 1524 c-111 -27 -212 -114 -261 -227 -79 -176 -43 -371 91 -506
71 -71 143 -101 256 -109 90 -5 176 19 239 69 53 42 68 39 68 -16 l0 -45 100
0 100 0 0 415 0 415 -100 0 -100 0 0 -40 c0 -36 -3 -40 -24 -40 -13 0 -26 4
-28 8 -9 22 -80 63 -133 77 -71 18 -130 18 -208 -1z m237 -163 c120 -28 186
-167 156 -328 -23 -119 -108 -183 -245 -183 -88 0 -147 23 -193 75 -21 24 -44
61 -50 83 -15 49 -15 155 -1 206 14 50 83 123 134 141 46 16 142 19 199 6z"/>
<path d="M9153 1526 c-134 -34 -246 -145 -287 -285 -23 -78 -21 -203 4 -277
64 -184 221 -293 408 -282 86 5 166 34 203 74 12 13 31 24 41 24 15 0 18 -8
18 -45 l0 -45 100 0 100 0 0 415 0 415 -100 0 -100 0 0 -40 c0 -51 -19 -53
-79 -5 -24 19 -60 40 -80 46 -57 17 -171 20 -228 5z m237 -166 c48 -13 106
-63 132 -113 26 -52 36 -176 18 -233 -34 -108 -97 -154 -222 -162 -139 -8
-229 46 -262 159 -44 147 15 304 129 344 47 16 155 19 205 5z"/>
</g>
</svg>
