<?xml version="1.0" standalone="no"?>
<!DOCTYPE svg PUBLIC "-//W3C//DTD SVG 20010904//EN"
 "http://www.w3.org/TR/2001/REC-SVG-20010904/DTD/svg10.dtd">
<svg version="1.0" xmlns="http://www.w3.org/2000/svg"
 width="1000.000000pt" height="363.000000pt" viewBox="0 0 1000.000000 363.000000"
 preserveAspectRatio="xMidYMid meet">
<metadata>
Created by potrace 1.16, written by Peter Selinger 2001-2019
</metadata>
<g transform="translate(0.000000,363.000000) scale(0.100000,-0.100000)"
fill="#000000" stroke="none">
<path d="M1915 2490 c-293 -46 -552 -235 -685 -500 -59 -117 -100 -280 -100
-395 0 -115 50 -311 106 -411 160 -292 441 -474 757 -491 505 -28 950 394 950
902 0 340 -213 669 -529 817 -146 68 -352 100 -499 78z m255 -164 c244 -40
440 -191 545 -419 49 -109 60 -165 59 -317 -1 -150 -14 -213 -66 -320 -43 -90
-78 -139 -150 -210 -152 -152 -369 -223 -608 -200 -256 25 -464 170 -584 408
-90 177 -90 477 0 654 90 179 234 308 416 374 56 21 179 42 248 43 30 0 93 -5
140 -13z"/>
<path d="M2023 2163 c-17 -6 -16 -38 0 -52 11 -8 18 -6 31 8 16 17 16 20 1 35
-9 9 -17 16 -18 15 -1 0 -8 -3 -14 -6z"/>
<path d="M1664 2009 c-11 -6 -28 -24 -38 -40 -17 -28 -17 -31 0 -57 9 -15 24
-34 33 -43 9 -9 56 -61 106 -115 49 -55 123 -134 165 -176 l76 -78 153 0 c171
0 199 8 221 61 12 27 11 36 -1 58 -25 43 -53 51 -200 51 l-136 0 -34 38 c-19
20 -81 89 -139 152 -152 168 -158 172 -206 149z"/>
<path d="M2390 2005 c-10 -12 -10 -18 0 -30 7 -8 18 -15 25 -15 7 0 18 7 25
15 10 12 10 18 0 30 -7 8 -18 15 -25 15 -7 0 -18 -7 -25 -15z"/>
<path d="M1470 1614 c-11 -12 -10 -18 3 -32 16 -15 18 -15 34 0 13 14 14 20 3
32 -7 9 -16 16 -20 16 -4 0 -13 -7 -20 -16z"/>
<path d="M2560 1615 c-10 -12 -10 -18 0 -30 24 -29 58 -7 44 30 -4 8 -12 15
-19 15 -7 0 -18 -7 -25 -15z"/>
<path d="M2410 1235 c-10 -12 -10 -18 0 -30 16 -19 39 -19 46 0 6 15 -11 45
-26 45 -4 0 -13 -7 -20 -15z"/>
<path d="M1640 1215 c-11 -13 -11 -18 2 -31 20 -20 50 -7 46 20 -4 26 -30 32
-48 11z"/>
<path d="M2011 1066 c-9 -11 -8 -18 5 -31 15 -15 19 -15 32 -1 17 17 10 46
-11 46 -8 0 -20 -6 -26 -14z"/>
<path d="M5660 1600 l0 -520 90 0 90 0 0 40 c0 32 4 40 18 40 11 0 27 -9 37
-20 24 -27 110 -66 161 -73 133 -21 291 60 358 183 76 140 72 298 -12 430 -73
115 -235 186 -363 159 -56 -11 -126 -46 -149 -73 -7 -9 -21 -16 -31 -16 -18 0
-19 11 -19 185 l0 185 -90 0 -90 0 0 -520z m539 63 c115 -72 136 -274 39 -379
-48 -52 -91 -68 -184 -67 -150 2 -224 80 -224 239 0 163 91 249 254 239 53 -3
80 -11 115 -32z"/>
<path d="M7700 1600 l0 -520 90 0 90 0 0 520 0 520 -90 0 -90 0 0 -520z"/>
<path d="M8120 1600 l0 -520 90 0 90 0 0 520 0 520 -90 0 -90 0 0 -520z"/>
<path d="M3520 1945 l0 -105 -50 0 -50 0 0 -75 0 -75 50 0 50 0 0 -239 c0
-264 2 -287 33 -323 39 -44 83 -60 188 -65 l99 -6 0 74 0 74 -45 2 c-97 4
-105 27 -105 291 l0 192 80 0 80 0 0 75 0 75 -80 0 -80 0 0 105 0 105 -85 0
-85 0 0 -105z"/>
<path d="M4902 1835 c-79 -17 -136 -50 -189 -108 -78 -84 -108 -173 -101 -300
10 -184 129 -323 308 -357 87 -17 192 9 256 63 47 39 64 36 64 -13 l0 -40 85
0 85 0 0 375 0 375 -85 0 -85 0 0 -40 c0 -51 -14 -51 -81 -5 -80 55 -163 71
-257 50z m243 -170 c28 -16 55 -43 72 -72 24 -42 27 -57 27 -138 0 -72 -4 -98
-21 -130 -41 -77 -100 -108 -209 -108 -162 -1 -244 95 -231 269 6 79 21 116
64 156 68 63 211 75 298 23z"/>
<path d="M6950 1837 c-141 -32 -246 -129 -284 -263 -25 -87 -27 -121 -12 -192
19 -93 54 -158 113 -213 131 -123 319 -139 445 -39 52 42 68 40 68 -10 l0 -40
85 0 85 0 0 375 0 375 -85 0 -85 0 0 -40 c0 -33 -3 -40 -19 -40 -11 0 -34 13
-51 29 -58 52 -171 78 -260 58z m188 -152 c105 -31 161 -130 149 -262 -14
-141 -86 -206 -232 -206 -117 0 -192 47 -224 142 -18 54 -14 170 8 216 48 104
169 148 299 110z"/>
<path d="M8810 1837 c-113 -25 -205 -95 -254 -191 -125 -247 8 -531 271 -577
76 -13 167 7 231 51 59 41 82 40 82 -5 l0 -35 85 0 85 0 0 375 0 375 -85 0
-85 0 0 -40 c0 -49 -17 -52 -69 -11 -69 55 -173 78 -261 58z m225 -167 c87
-42 129 -150 108 -275 -21 -121 -94 -178 -228 -178 -154 0 -235 82 -235 237 0
132 46 200 160 237 43 14 145 3 195 -21z"/>
<path d="M4425 1831 c-49 -12 -101 -40 -131 -71 -16 -16 -39 -30 -51 -30 -21
0 -23 5 -23 50 l0 50 -85 0 -85 0 0 -375 0 -375 85 0 85 0 0 180 c0 98 5 202
11 229 21 101 98 167 205 178 l54 6 0 83 c0 92 1 91 -65 75z"/>
</g>
</svg>
