<?xml version="1.0" encoding="UTF-8" standalone="no"?>
<svg
   xmlns="http://www.w3.org/2000/svg"
   width="32"
   height="32"
   viewBox="0 0 32 32"
   version="1.1">
  <circle
     style="fill:#3498db;fill-opacity:1;stroke:none;stroke-width:2"
     cx="16"
     cy="16"
     r="16" />
  <path
     d="M 16,4 C 9.372583,4 4,9.372583 4,16 4,22.627417 9.372583,28 16,28 22.627417,28 28,22.627417 28,16 28,9.372583 22.627417,4 16,4 Z m 0,2 c 5.522847,0 10,4.477153 10,10 0,5.522847 -4.477153,10 -10,10 C 10.477153,26 6,21.522847 6,16 6,10.477153 10.477153,6 16,6 Z"
     style="fill:#ffffff;fill-opacity:1;stroke:none;stroke-width:2" />
  <rect
     style="fill:#ffffff;fill-opacity:1;stroke:none;stroke-width:2"
     width="2"
     height="10"
     x="15"
     y="10" />
  <rect
     style="fill:#ffffff;fill-opacity:1;stroke:none;stroke-width:2"
     width="6"
     height="2"
     x="15"
     y="16" />
</svg>
