<?xml version="1.0" encoding="UTF-8" standalone="no"?>
<svg
   xmlns="http://www.w3.org/2000/svg"
   width="1200"
   height="630"
   viewBox="0 0 1200 630"
   version="1.1">
  <rect
     style="fill:#3498db;fill-opacity:1"
     width="1200"
     height="630"
     x="0"
     y="0" />
  <rect
     style="fill:#2980b9;fill-opacity:1"
     width="1200"
     height="315"
     x="0"
     y="315" />
  <text
     xml:space="preserve"
     style="font-style:normal;font-weight:normal;font-size:120px;font-family:sans-serif;fill:#ffffff;fill-opacity:1;stroke:none"
     x="150"
     y="280"
     id="text835">Traballa</text>
  <text
     xml:space="preserve"
     style="font-style:normal;font-weight:normal;font-size:60px;font-family:sans-serif;fill:#ffffff;fill-opacity:1;stroke:none"
     x="150"
     y="380"
     id="text837">Work Time Management &amp; Project Tracking</text>
  <circle
     style="fill:#ffffff;fill-opacity:0.3;stroke:none;stroke-width:2"
     cx="900"
     cy="200"
     r="150" />
  <path
     d="M 900,100 C 845,100 800,145 800,200 800,255 845,300 900,300 955,300 1000,255 1000,200 1000,145 955,100 900,100 Z m 0,40 c 33,0 60,27 60,60 0,33 -27,60 -60,60 -33,0 -60,-27 -60,-60 0,-33 27,-60 60,-60 z"
     style="fill:#ffffff;fill-opacity:1;stroke:none;stroke-width:2" />
  <rect
     style="fill:#ffffff;fill-opacity:1;stroke:none;stroke-width:2"
     width="20"
     height="80"
     x="890"
     y="150" />
  <rect
     style="fill:#ffffff;fill-opacity:1;stroke:none;stroke-width:2"
     width="60"
     height="20"
     x="890"
     y="200" />
</svg>
