<?xml version="1.0" encoding="UTF-8" standalone="no"?>
<svg
   xmlns="http://www.w3.org/2000/svg"
   width="600"
   height="400"
   viewBox="0 0 600 400"
   version="1.1">
  <rect
     style="fill:#e9f5ff;fill-opacity:1"
     width="600"
     height="400"
     x="0"
     y="0"
     rx="10"
     ry="10" />
  <g transform="translate(300, 200)">
    <!-- Server rack -->
    <rect
       style="fill:#2c3e50;fill-opacity:1;stroke:none;stroke-width:2"
       width="200"
       height="160"
       x="-100"
       y="-80"
       rx="5"
       ry="5" />
    <!-- Server units -->
    <rect
       style="fill:#34495e;fill-opacity:1;stroke:none;stroke-width:2"
       width="180"
       height="30"
       x="-90"
       y="-70"
       rx="3"
       ry="3" />
    <rect
       style="fill:#34495e;fill-opacity:1;stroke:none;stroke-width:2"
       width="180"
       height="30"
       x="-90"
       y="-30"
       rx="3"
       ry="3" />
    <rect
       style="fill:#34495e;fill-opacity:1;stroke:none;stroke-width:2"
       width="180"
       height="30"
       x="-90"
       y="10"
       rx="3"
       ry="3" />
    <rect
       style="fill:#34495e;fill-opacity:1;stroke:none;stroke-width:2"
       width="180"
       height="30"
       x="-90"
       y="50"
       rx="3"
       ry="3" />
    <!-- Server LEDs -->
    <circle
       style="fill:#2ecc71;fill-opacity:1;stroke:none;stroke-width:2"
       cx="-75"
       cy="-55"
       r="3" />
    <circle
       style="fill:#3498db;fill-opacity:1;stroke:none;stroke-width:2"
       cx="-65"
       cy="-55"
       r="3" />
    <circle
       style="fill:#2ecc71;fill-opacity:1;stroke:none;stroke-width:2"
       cx="-75"
       cy="-15"
       r="3" />
    <circle
       style="fill:#e74c3c;fill-opacity:1;stroke:none;stroke-width:2"
       cx="-65"
       cy="-15"
       r="3" />
    <circle
       style="fill:#2ecc71;fill-opacity:1;stroke:none;stroke-width:2"
       cx="-75"
       cy="25"
       r="3" />
    <circle
       style="fill:#2ecc71;fill-opacity:1;stroke:none;stroke-width:2"
       cx="-65"
       cy="25"
       r="3" />
    <circle
       style="fill:#2ecc71;fill-opacity:1;stroke:none;stroke-width:2"
       cx="-75"
       cy="65"
       r="3" />
    <circle
       style="fill:#3498db;fill-opacity:1;stroke:none;stroke-width:2"
       cx="-65"
       cy="65"
       r="3" />
    <!-- Connection lines -->
    <line
       style="stroke:#3498db;stroke-width:3;stroke-dasharray:5,3"
       x1="-120"
       y1="-100"
       x2="0"
       y2="-140" />
    <line
       style="stroke:#3498db;stroke-width:3;stroke-dasharray:5,3"
       x1="0"
       y1="-140"
       x2="120"
       y2="-100" />
    <line
       style="stroke:#3498db;stroke-width:3;stroke-dasharray:5,3"
       x1="120"
       y1="-100"
       x2="120"
       y2="0" />
    <line
       style="stroke:#3498db;stroke-width:3;stroke-dasharray:5,3"
       x1="120"
       y1="0"
       x2="0"
       y2="100" />
    <line
       style="stroke:#3498db;stroke-width:3;stroke-dasharray:5,3"
       x1="0"
       y1="100"
       x2="-120"
       y2="0" />
    <line
       style="stroke:#3498db;stroke-width:3;stroke-dasharray:5,3"
       x1="-120"
       y1="0"
       x2="-120"
       y2="-100" />
    <!-- Cloud icon -->
    <path
       style="fill:#ecf0f1;stroke:#bdc3c7;stroke-width:2"
       d="M 0,-140 C 20,-140 20,-160 0,-160 C -20,-160 -20,-140 0,-140 Z M -20,-150 C -40,-150 -40,-130 -20,-130 C -10,-130 -10,-140 0,-120 C 10,-140 10,-130 20,-130 C 40,-130 40,-150 20,-150 Z" />
    <!-- Computer icon -->
    <rect
       style="fill:#ecf0f1;stroke:#bdc3c7;stroke-width:2"
       width="40"
       height="30"
       x="-20"
       y="100"
       rx="2"
       ry="2" />
    <rect
       style="fill:#3498db;stroke:none"
       width="36"
       height="22"
       x="-18"
       y="104" />
    <rect
       style="fill:#bdc3c7;stroke:none"
       width="50"
       height="4"
       x="-25"
       y="134" />
    <!-- Mobile icon -->
    <rect
       style="fill:#ecf0f1;stroke:#bdc3c7;stroke-width:2"
       width="20"
       height="36"
       x="110"
       y="-18"
       rx="3"
       ry="3" />
    <rect
       style="fill:#3498db;stroke:none"
       width="16"
       height="26"
       x="112"
       y="-14" />
    <circle
       style="fill:#bdc3c7;fill-opacity:1;stroke:none"
       cx="120"
       cy="18"
       r="2" />
  </g>
  <text
     xml:space="preserve"
     style="font-style:normal;font-weight:normal;font-size:32px;font-family:sans-serif;fill:#2c3e50"
     x="300"
     y="50"
     text-anchor="middle">Self-Hosted Traballa</text>
  <text
     xml:space="preserve"
     style="font-style:normal;font-weight:normal;font-size:18px;font-family:sans-serif;fill:#34495e"
     x="300"
     y="80"
     text-anchor="middle">Keep your data secure on your own servers</text>
</svg>
